{"title":"Full Metal Jacket (PSP + Ipod touch + Zune)","uid":5643594,"size":460528817,"categoryP":"video","categoryS":"handheld","magnet":"?xt=urn:btih:9a18d60b8a4ce472fb0662bdcf75c05c82c12b7d&amp;dn=Full+Metal+Jacket+%28PSP+%2B+Ipod+touch+%2B+Zune%29&amp;tr=udp%3A%2F%2Ftracker.openbittorrent.com%3A80&amp;tr=udp%3A%2F%2Fopen.demonii.com%3A1337&amp;tr=udp%3A%2F%2Ftracker.coppersurfer.tk%3A6969&amp;tr=udp%3A%2F%2Fexodus.desync.com%3A6969","seeders":0,"leechers":0,"uploader":"on.off.on","files":-1,"time":1277167737,"description":"Full Metal Jacket\n\nsource:\n\nFull.Metal.Jacket.REMASTERED.1987.720p.HDDVD.x264-SEPTiC &lt;a href=&quot;\nhttp://www.imdb.com/title/tt0093058/&quot; rel=&quot;nofollow&quot; target=&quot;_NEW&quot;&gt;\nhttp://www.imdb.com/title/tt0093058/&lt;/a&gt;\n\nID                               : 1\nFormat                           : AVC\nFormat/Info                      : Advanced Video Codec\nFormat profile                   : &lt;a class=&quot;__cf_email__&quot; href=&quot;/cdn-cgi/l/email-protection&quot; data-cfemail=&quot;36745745535a5f5853767a041807&quot;&gt;[email&amp;#160;protected]&lt;/a&gt;&lt;script cf-hash='f9e31' type=&quot;text/javascript&quot;&gt;\n/* &lt;![CDATA[ */!function(){try{var t=&quot;currentScript&quot;in document?document.currentScript:function(){for(var t=document.getElementsByTagName(&quot;script&quot;),e=t.length;e--;)if(t[e].getAttribute(&quot;cf-hash&quot;))return t[e]}();if(t&amp;&amp;t.previousSibling){var e,r,n,i,c=t.previousSibling,a=c.getAttribute(&quot;data-cfemail&quot;);if(a){for(e=&quot;&quot;,r=parseInt(a.substr(0,2),16),n=2;a.length-n;n+=2)i=parseInt(a.substr(n,2),16)^r,e+=String.fromCharCode(i);e=document.createTextNode(e),c.parentNode.replaceChild(e,c)}}}catch(u){}}();/* ]]&gt; */&lt;/script&gt;\nFormat settings, CABAC           : No\nFormat settings, ReFrames        : 3 frames\nCodec ID                         : avc1\nCodec ID/Info                    : Advanced Video Coding\nDuration                         : 1h 56mn\nBit rate mode                    : Variable\nBit rate                         : 395 Kbps\nWidth                            : 480 pixels\nHeight                           : 272 pixels\nDisplay aspect ratio             : 16:9\nFrame rate mode                  : Variable\nFrame rate                       : 23.976 fps\nMinimum frame rate               : 23.810 fps\nMaximum frame rate               : 24.390 fps\nColor space                      : YUV\nChroma subsampling               : 4:2:0\nBit depth                        : 8 bits\nScan type                        : Progressive\nBits/(Pixel*Frame)               : 0.126\nStream size                      : 329 MiB (75%)\nWriting library                  : x264 core 79\n\nID                               : 2\nFormat                           : AAC\nFormat/Info                      : Advanced Audio Codec\nFormat version                   : Version 4\nFormat profile                   : LC\nFormat settings, SBR             : No\nCodec ID                         : 40\nDuration                         : 1h 56mn\nBit rate mode                    : Variable\nBit rate                         : 128 Kbps\nMaximum bit rate                 : 181 Kbps\nChannel(s)                       : 2 channels\nChannel positions                : Front: L R\nSampling rate                    : 48.0 KHz\nStream size                      : 107 MiB (24%)\nLanguage                         : English\n &lt;a href=&quot;\nhttp://img42.imageshack.us/img42/760/vlcsnap00001r.png&quot; rel=&quot;nofollow&quot; target=&quot;_NEW&quot;&gt;\nhttp://img42.imageshack.us/img42/760/vlcsnap00001r.png&lt;/a&gt; &lt;a href=&quot;\nhttp://img256.imageshack.us/img256/2163/vlcsnap00002s.png&quot; rel=&quot;nofollow&quot; target=&quot;_NEW&quot;&gt;\nhttp://img256.imageshack.us/img256/2163/vlcsnap00002s.png&lt;/a&gt; &lt;a href=&quot;\nhttp://img72.imageshack.us/img72/7499/vlcsnap00003v.png&quot; rel=&quot;nofollow&quot; target=&quot;_NEW&quot;&gt;\nhttp://img72.imageshack.us/img72/7499/vlcsnap00003v.png&lt;/a&gt; &lt;a href=&quot;\nhttp://img84.imageshack.us/img84/803/vlcsnap00004s.png&quot; rel=&quot;nofollow&quot; target=&quot;_NEW&quot;&gt;\nhttp://img84.imageshack.us/img84/803/vlcsnap00004s.png&lt;/a&gt; &lt;a href=&quot;\nhttp://img517.imageshack.us/img517/1001/vlcsnap00005p.png&quot; rel=&quot;nofollow&quot; target=&quot;_NEW&quot;&gt;\nhttp://img517.imageshack.us/img517/1001/vlcsnap00005p.png&lt;/a&gt; &lt;a href=&quot;\nhttp://img18.imageshack.us/img18/3027/vlcsnap00006d.png&quot; rel=&quot;nofollow&quot; target=&quot;_NEW&quot;&gt;\nhttp://img18.imageshack.us/img18/3027/vlcsnap00006d.png&lt;/a&gt; &lt;a href=&quot;\nhttp://img708.imageshack.us/img708/335/vlcsnap00007t.png&quot; rel=&quot;nofollow&quot; target=&quot;_NEW&quot;&gt;\nhttp://img708.imageshack.us/img708/335/vlcsnap00007t.png&lt;/a&gt; &lt;a href=&quot;\nhttp://img25.imageshack.us/img25/5291/vlcsnap00008w.png&quot; rel=&quot;nofollow&quot; target=&quot;_NEW&quot;&gt;\nhttp://img25.imageshack.us/img25/5291/vlcsnap00008w.png&lt;/a&gt;\n\n\n\n\n\n\nPLEASE LET THE TORRENT SEED AND SHARE IT WITH ALL YOU KNOW!\n\nLet me know what I can do to be your trusted source of Handheld videos.\n\n\n\n\n\n-OOO \n","torrent":{"xt":"urn:btih:9a18d60b8a4ce472fb0662bdcf75c05c82c12b7d","amp;dn":"Full+Metal+Jacket+%28PSP+%2B+Ipod+touch+%2B+Zune%29","amp;tr":["udp%3A%2F%2Ftracker.openbittorrent.com%3A80","udp%3A%2F%2Fopen.demonii.com%3A1337","udp%3A%2F%2Ftracker.coppersurfer.tk%3A6969","udp%3A%2F%2Fexodus.desync.com%3A6969"],"infoHash":"9a18d60b8a4ce472fb0662bdcf75c05c82c12b7d","infoHashBuffer":{"type":"Buffer","data":[154,24,214,11,138,76,228,114,251,6,98,189,207,117,192,92,130,193,43,125]},"announce":[],"urlList":[]}}